<svg id="_24px_3_" data-name="24px (3)" xmlns="http://www.w3.org/2000/svg" width="40.26" height="40.26" viewBox="0 0 40.26 40.26">
  <path id="Path_132" data-name="Path 132" d="M0,0H40.26V40.26H0Z" fill="none"/>
  <path id="Path_133" data-name="Path 133" d="M5.2,12l-.2.57v7.817H28.485V12.57l-.2-.57Zm3.992,6.71a2.516,2.516,0,1,1,2.516-2.516A2.513,2.513,0,0,1,9.194,18.71Zm15.1,0a2.516,2.516,0,1,1,2.516-2.516A2.513,2.513,0,0,1,24.291,18.71Z" transform="translate(3.388 8.13)" fill="#dadce0"/>
  <path id="Path_134" data-name="Path 134" d="M27.324,6.355H23.13V3H13.065V6.355H8.871A2.523,2.523,0,0,0,6.489,8.049L3,18.1v13.42A1.682,1.682,0,0,0,4.678,33.2H6.355a1.682,1.682,0,0,0,1.678-1.678V29.84h20.13v1.678A1.682,1.682,0,0,0,29.84,33.2h1.678A1.682,1.682,0,0,0,33.2,31.518V18.1L29.706,8.049A2.506,2.506,0,0,0,27.324,6.355ZM9.458,9.71H26.72l1.745,5.033H7.714ZM29.84,26.485H6.355V18.668l.2-.57h23.1l.185.57Z" transform="translate(2.033 2.033)" fill="#80868b"/>
  <ellipse id="Ellipse_65" data-name="Ellipse 65" cx="2.31" cy="2.64" rx="2.31" ry="2.64" transform="translate(10.178 21.779)" fill="#80868b"/>
  <ellipse id="Ellipse_66" data-name="Ellipse 66" cx="2.31" cy="2.64" rx="2.31" ry="2.64" transform="translate(25.358 21.779)" fill="#80868b"/>
</svg>
