<svg id="twotone-map-24px" xmlns="http://www.w3.org/2000/svg" width="40.661" height="40.661" viewBox="0 0 40.661 40.661">
  <path id="Path_45" data-name="Path 45" d="M0,0H40.661V40.661H0Z" fill="none"/>
  <path id="Path_46" data-name="Path 46" d="M5,27.237l5.083-1.965V5.45L5,7.161Zm18.636.407,5.083-1.711V5.857L23.636,7.839Z" transform="translate(3.471 3.783)" fill="#fff"/>
  <path id="Path_47" data-name="Path 47" d="M32.649,3l-.271.051L23.33,6.558,13.165,3,3.61,6.219A.854.854,0,0,0,3,7.032V32.649a.839.839,0,0,0,.847.847l.271-.051,9.047-3.507L23.33,33.5l9.555-3.219a.854.854,0,0,0,.61-.813V3.847A.839.839,0,0,0,32.649,3ZM11.471,26.973,6.388,28.938V8.862l5.083-1.711Zm10.165,2.338-6.777-2.372V7.185l6.777,2.372Zm8.471-1.677-5.083,1.711V9.54l5.083-1.965V27.634Z" transform="translate(2.083 2.083)" fill="#80868b"/>
</svg>
