<svg xmlns="http://www.w3.org/2000/svg" width="39.415" height="39.415" viewBox="0 0 39.415 39.415">
  <g id="_24px" data-name="24px" transform="translate(0)">
    <path id="Path_135" data-name="Path 135" d="M0,0H39.415V39.415H0Z" fill="none"/>
    <path id="Path_136" data-name="Path 136" d="M24.673,25.35l.476-.443a1.589,1.589,0,0,0,.558-1.2V17.138H6v6.569a1.589,1.589,0,0,0,.558,1.2l.476.443H24.673ZM10.106,23.708a2.463,2.463,0,1,1,2.463-2.463A2.46,2.46,0,0,1,10.106,23.708Zm9.033-2.463A2.463,2.463,0,1,1,21.6,23.708,2.46,2.46,0,0,1,19.138,21.244ZM15.854,4c-6.06,0-8.392.755-9.3,1.626H25.133C24.246,4.755,21.914,4,15.854,4Z" transform="translate(3.854 2.569)" fill="#dadce0"/>
    <path id="Path_137" data-name="Path 137" d="M25.35,33.2h1.642a1.647,1.647,0,0,0,1.642-1.642V28.638a4.9,4.9,0,0,0,1.642-3.646V8.569C30.277,2.821,24.4,2,17.138,2S4,2.821,4,8.569V24.992a4.9,4.9,0,0,0,1.642,3.646v2.923A1.647,1.647,0,0,0,7.285,33.2H8.927a1.647,1.647,0,0,0,1.642-1.642V29.919H23.708v1.642A1.647,1.647,0,0,0,25.35,33.2ZM17.138,5.285c6.06,0,8.392.755,9.3,1.626H7.843C8.746,6.04,11.078,5.285,17.138,5.285ZM7.285,10.2H26.992v4.943H7.285Zm3.285,16.439H8.319l-.476-.443a1.589,1.589,0,0,1-.558-1.2V18.423H26.992v6.569a1.589,1.589,0,0,1-.558,1.2l-.476.443Z" transform="translate(2.569 1.285)" fill="#80868b"/>
  </g>
</svg>
